HIERARCHY
ROOT Hips
{
	OFFSET 0.00000 0.00000 0.00000
	CHANNELS 6 Xposition Yposition Zposition Zrotation Yrotation Xrotation 
	JOINT LHipJoint
	{
		OFFSET 0 0 0
		CHANNELS 3 Zrotation Yrotation Xrotation
		JOINT LeftHip
		{
			OFFSET 1.52977 -1.71332 0.88991
			CHANNELS 3 Zrotation Yrotation Xrotation
			JOINT LeftKnee
			{
				OFFSET 2.23949 -6.15296 0.00000
				CHANNELS 3 Zrotation Yrotation Xrotation
				JOINT LeftAnkle
				{
					OFFSET 2.68396 -7.37412 0.00000
					CHANNELS 3 Zrotation Yrotation Xrotation
					JOINT LeftToe
					{
						OFFSET 0.20538 -0.56428 2.52710
						CHANNELS 3 Zrotation Yrotation Xrotation
						End Site
						{
							OFFSET 0.00000 -0.00000 1.29919
						}
					}
				}
			}
		}
	}
	JOINT RHipJoint
	{
		OFFSET 0 0 0
		CHANNELS 3 Zrotation Yrotation Xrotation
		JOINT RightHip
		{
			OFFSET -1.45689 -1.71333 0.88991
			CHANNELS 3 Zrotation Yrotation Xrotation
			JOINT RightKnee
			{
				OFFSET -2.36700 -6.50329 0.00000
				CHANNELS 3 Zrotation Yrotation Xrotation
				JOINT RightAnkle
				{
					OFFSET -2.69814 -7.41308 0.00000
					CHANNELS 3 Zrotation Yrotation Xrotation
					JOINT RightToe
					{
						OFFSET -0.18734 -0.51471 2.37479
						CHANNELS 3 Zrotation Yrotation Xrotation
						End Site
						{
							OFFSET -0.00000 -0.00000 1.22113
						}
					}
				}
			}
		}
	}
	JOINT lowerback
	{
		OFFSET 0 0 0
		CHANNELS 3 Zrotation Yrotation Xrotation
		JOINT Chest
		{
			OFFSET 0.04294 2.14638 -0.31163
			CHANNELS 3 Zrotation Yrotation Xrotation
			JOINT Chest2
			{
				OFFSET -0.00400 2.17216 0.01486
				CHANNELS 3 Zrotation Yrotation Xrotation
				JOINT lowerneck
				{
					OFFSET 0 0 0
					CHANNELS 3 Zrotation Yrotation Xrotation
					JOINT Neck
					{
						OFFSET 0.03869 1.76598 0.14916
						CHANNELS 3 Zrotation Yrotation Xrotation
						JOINT Head
						{
							OFFSET -0.00760 1.75513 -0.18948
							CHANNELS 3 Zrotation Yrotation Xrotation
							End Site
							{
								OFFSET -0.00601 1.82444 -0.08310
							}
						}
					}
				}
				JOINT LeftCollar
				{
					OFFSET 0 0 0
					CHANNELS 3 Zrotation Yrotation Xrotation
					JOINT LeftShoulder
					{
						OFFSET 3.73696 0.92058 0.01733
CHANNELS 3 Zrotation Xrotation Yrotation
						JOINT LeftElbow
						{
OFFSET 0 -5.227710 0.000000
CHANNELS 3 Zrotation Xrotation Yrotation
							JOINT LeftWrist
							{
OFFSET 0 -3.452510 0.000000
CHANNELS 3 Zrotation Xrotation Yrotation
								JOINT lhand
								{
									OFFSET 0 0 0
CHANNELS 3 Zrotation Xrotation Yrotation
									JOINT LFingers
									{
OFFSET 0 -0.552120 0.000000
CHANNELS 3 Zrotation Xrotation Yrotation
										End Site
										{
OFFSET 0 -0.445130 0.000000
										}
									}
								}
								JOINT LThumb
								{
OFFSET 0 0.000000 0.000000
CHANNELS 3 Zrotation Xrotation Yrotation
									End Site
									{
OFFSET 0 -0.451930 0.451930
									}
								}
							}
						}
					}
				}
				JOINT RightCollar
				{
					OFFSET 0 0 0
					CHANNELS 3 Zrotation Yrotation Xrotation
					JOINT RightShoulder
					{
						OFFSET -3.63819 0.83094 -0.13694
CHANNELS 3 Zrotation Xrotation Yrotation
						JOINT RightElbow
						{
OFFSET 0 -5.239800 -0.000000
CHANNELS 3 Zrotation Xrotation Yrotation
							JOINT RightWrist
							{
OFFSET 0 -3.480420 -0.000000
CHANNELS 3 Zrotation Xrotation Yrotation
								JOINT rhand
								{
									OFFSET 0 0 0
CHANNELS 3 Zrotation Xrotation Yrotation
									JOINT RFingers
									{
OFFSET 0 -0.618710 0.000000
CHANNELS 3 Zrotation Xrotation Yrotation
										End Site
										{
OFFSET 0 -0.498820 0.000000
										}
									}
								}
								JOINT RThumb
								{
OFFSET 0 0.000000 0.000000
CHANNELS 3 Zrotation Xrotation Yrotation
									End Site
									{
OFFSET 0 -0.506440 0.506440
									}
								}
							}
						}
					}
				}
			}
		}
	}
}
MOTION
Frames: 11
Frame Time: 0.008333333333333333
52.527700 13.938800 -5.714700 5.224200 -85.512600 14.682400 0.000000 0.000000 0.000000 -8.680600 -11.899600 -66.308300 13.826900 19.060700 71.675200 1.757900 -0.855000 -24.834100 0.297300 -3.506300 -9.691500 0.000000 0.000000 0.000000 10.212400 9.825600 -69.345000 -15.909100 -19.593900 77.960900 -2.386000 -0.025000 -29.282300 -0.000500 0.141000 -0.387300 0.915300 -0.823300 26.124600 -0.491600 -1.236700 5.075500 -0.641600 -0.764300 -8.884300 1.275300 -0.201500 -5.666100 1.941200 -0.579100 -14.862000 0.446500 -0.653400 -3.851200 -0.000000 -0.000000 0.000000 7.116400 -10.526300 -31.885300 28.100900 -39.209000 10.187400 18.505700 -22.969900 -13.119200 0.000000 0.000000 0.000000 -7.125000 0.000000 0.000000 -8.074000 43.640100 -0.272900 -0.000000 -0.000000 0.000000 -2.400300 -12.354900 28.430300 -27.169100 -38.340000 -9.603800 -19.523300 -7.856100 6.522800 0.000000 0.000000 0.000000 7.125000 0.000000 -0.000000 6.116600 36.836500 1.234000
52.527423 13.934538 -5.714000 5.203614 -85.520776 14.709102 0.000000 0.000000 0.000000 -8.745312 -11.734382 -66.393150 13.840208 19.064862 71.715979 1.754523 -0.972326 -24.775743 0.302091 -3.533678 -9.768404 0.000000 0.000000 0.000000 10.199831 9.830289 -69.381767 -15.925245 -19.597138 78.008966 -2.390772 -0.003098 -29.304553 -0.000539 0.134509 -0.369544 0.908168 -0.821124 26.116474 -0.490364 -1.236555 5.088242 -0.636386 -0.764339 -8.865703 1.299501 -0.200717 -5.692084 1.926111 -0.582494 -14.881937 0.437447 -0.656855 -3.853637 0.000000 0.000000 0.000000 7.118431 -10.527305 -31.889712 28.117611 -39.224272 10.198002 18.483607 -22.970474 -13.079221 0.000000 0.000000 0.000000 -7.125000 0.000000 0.000000 -8.085409 43.596307 -0.282077 0.000000 0.000000 0.000000 -2.413839 -12.372590 28.462169 -27.192161 -38.361861 -9.618192 -19.563935 -7.874276 6.545958 0.000000 0.000000 0.000000 7.125000 0.000000 0.000000 6.085207 36.863174 1.223589
52.527500 13.935654 -5.713662 5.119725 -85.522492 14.795520 0.000000 0.000000 0.000000 -8.748441 -11.715845 -66.398881 13.841685 19.065362 71.720410 1.754708 -0.966658 -24.778687 0.305492 -3.553653 -9.824213 0.000000 0.000000 0.000000 10.187514 9.839238 -69.374599 -15.933968 -19.598884 78.034957 -2.406805 0.202389 -29.338919 -0.000046 -0.050747 0.139328 0.908302 -0.819408 26.118848 -0.481232 -1.233038 5.083737 -0.627403 -0.762500 -8.871726 1.293029 -0.202667 -5.677907 1.925094 -0.584267 -14.881635 0.438351 -0.657245 -3.856094 0.000000 0.000000 0.000000 7.115293 -10.515855 -31.929706 28.113814 -39.220822 10.195545 18.464767 -23.055342 -12.913419 0.000000 0.000000 0.000000 -7.125000 0.000000 0.000000 -8.067622 43.422637 -0.316259 0.000000 0.000000 0.000000 -2.444107 -12.365497 28.469505 -27.200504 -38.369712 -9.623328 -19.538025 -7.908753 6.505618 0.000000 0.000000 0.000000 7.125000 0.000000 0.000000 6.102192 36.819149 1.233614
52.527669 13.936238 -5.712924 5.149791 -85.523338 14.769299 0.000000 0.000000 0.000000 -8.759472 -11.704281 -66.404512 13.839785 19.064762 71.714556 1.754738 -0.974795 -24.776531 0.304747 -3.549397 -9.812175 0.000000 0.000000 0.000000 10.175719 9.837449 -69.375006 -15.935254 -19.599131 78.038763 -2.411407 0.280238 -29.343234 -0.000369 -0.119447 0.328229 0.903418 -0.820798 26.113403 -0.477140 -1.235751 5.084793 -0.619257 -0.763553 -8.867609 1.278206 -0.207713 -5.678509 1.942737 -0.588429 -14.864171 0.446688 -0.658607 -3.849634 0.000000 0.000000 0.000000 7.114553 -10.507191 -31.959161 28.125406 -39.231422 10.202932 18.422761 -23.130352 -12.789985 0.000000 0.000000 0.000000 -7.125000 0.000000 0.000000 -8.079620 43.290166 -0.343289 0.000000 0.000000 0.000000 -2.468004 -12.370215 28.481331 -27.214998 -38.383453 -9.632356 -19.539359 -7.926678 6.491779 0.000000 0.000000 0.000000 7.125000 0.000000 0.000000 6.099479 36.804679 1.235231
52.528176 13.936408 -5.712316 5.107062 -85.525137 14.817058 0.000000 0.000000 0.000000 -8.760041 -11.697512 -66.415114 13.840137 19.064876 71.715612 1.754900 -0.982012 -24.775263 0.303347 -3.541351 -9.789698 0.000000 0.000000 0.000000 10.180423 9.834110 -69.382131 -15.932510 -19.598624 78.030522 -2.407988 0.252609 -29.330749 -0.000208 -0.097479 0.267898 0.903129 -0.824474 26.112584 -0.475255 -1.239982 5.080228 -0.615563 -0.765445 -8.872341 1.284568 -0.204465 -5.671073 1.943165 -0.583528 -14.856545 0.445533 -0.656202 -3.848274 0.000000 0.000000 0.000000 7.119472 -10.493902 -31.990292 28.143662 -39.248125 10.214437 18.382493 -23.170392 -12.747218 0.000000 0.000000 0.000000 -7.125000 0.000000 0.000000 -8.106756 43.241651 -0.354298 0.000000 0.000000 0.000000 -2.484814 -12.365882 28.496653 -27.233049 -38.400488 -9.643500 -19.540847 -7.936465 6.497845 0.000000 0.000000 0.000000 7.125000 0.000000 0.000000 6.098906 36.811129 1.234155
52.528961 13.936100 -5.711754 4.990921 -85.533053 14.931115 0.000000 0.000000 0.000000 -8.754933 -11.686347 -66.422146 13.842667 19.065646 71.723401 1.754815 -0.979996 -24.775452 0.303285 -3.540863 -9.788405 0.000000 0.000000 0.000000 10.191580 9.838486 -69.383372 -15.930600 -19.598200 78.024970 -2.405400 0.224033 -29.323630 -0.000100 -0.077209 0.212057 0.907176 -0.823772 26.120953 -0.474885 -1.237781 5.075187 -0.618037 -0.764448 -8.882277 1.299723 -0.200670 -5.654615 1.938797 -0.578609 -14.863768 0.441570 -0.654515 -3.853971 0.000000 0.000000 0.000000 7.127971 -10.492017 -32.026894 28.152622 -39.256322 10.220076 18.361019 -23.185071 -12.739003 0.000000 0.000000 0.000000 -7.125000 0.000000 0.000000 -8.124344 43.230781 -0.357206 0.000000 0.000000 0.000000 -2.492319 -12.358618 28.497583 -27.245556 -38.412410 -9.651289 -19.544384 -7.937538 6.497248 0.000000 0.000000 0.000000 7.125000 0.000000 0.000000 6.095908 36.810694 1.233594
52.529576 13.935571 -5.711085 4.944797 -85.543167 14.973241 0.000000 0.000000 0.000000 -8.754353 -11.679647 -66.425444 13.845926 19.066629 71.733456 1.755415 -0.977668 -24.780285 0.302662 -3.537232 -9.778335 0.000000 0.000000 0.000000 10.191668 9.845318 -69.384297 -15.932565 -19.598653 78.030856 -2.406391 0.232888 -29.326894 -0.000200 -0.083474 0.229412 0.907585 -0.820218 26.125827 -0.476282 -1.233256 5.074544 -0.621259 -0.762409 -8.885412 1.306170 -0.200338 -5.646338 1.945500 -0.577376 -14.870421 0.442829 -0.654753 -3.857959 0.000000 0.000000 0.000000 7.135256 -10.507744 -32.057003 28.150053 -39.254030 10.218474 18.355618 -23.187018 -12.740138 0.000000 0.000000 0.000000 -7.125000 0.000000 0.000000 -8.129421 43.231415 -0.357324 0.000000 0.000000 0.000000 -2.494738 -12.361126 28.486980 -27.249685 -38.416285 -9.653862 -19.555485 -7.929227 6.490276 0.000000 0.000000 0.000000 7.125000 0.000000 0.000000 6.085697 36.804029 1.232541
52.530023 13.934394 -5.710255 4.990363 -85.550970 14.929962 0.000000 0.000000 0.000000 -8.758616 -11.682589 -66.435286 13.850348 19.068029 71.746882 1.756084 -0.971004 -24.787122 0.302745 -3.537664 -9.779386 0.000000 0.000000 0.000000 10.181785 9.846320 -69.396934 -15.937570 -19.599606 78.045611 -2.407545 0.242454 -29.331280 -0.000200 -0.082807 0.227427 0.906916 -0.819935 26.124284 -0.480103 -1.233380 5.072991 -0.625035 -0.762429 -8.886454 1.313677 -0.200487 -5.660289 1.949923 -0.577726 -14.859744 0.442794 -0.655294 -3.851549 0.000000 0.000000 0.000000 7.138042 -10.528463 -32.068232 28.140601 -39.245308 10.212511 18.369375 -23.181933 -12.737468 0.000000 0.000000 0.000000 -7.125000 0.000000 0.000000 -8.116531 43.230120 -0.357039 0.000000 0.000000 0.000000 -2.495313 -12.366100 28.479987 -27.249777 -38.416339 -9.653939 -19.564770 -7.919956 6.493270 0.000000 0.000000 0.000000 7.125000 0.000000 0.000000 6.078204 36.807715 1.230426
52.530453 13.933363 -5.709078 5.058059 -85.553400 14.863541 0.000000 0.000000 0.000000 -8.763302 -11.694833 -66.442470 13.854380 19.069237 71.759225 1.756384 -0.957994 -24.793523 0.303753 -3.543365 -9.795357 0.000000 0.000000 0.000000 10.172359 9.838875 -69.409925 -15.941565 -19.600453 78.057410 -2.407253 0.235231 -29.331584 -0.000100 -0.068770 0.188990 0.908965 -0.825045 26.131384 -0.483359 -1.239382 5.066481 -0.627774 -0.765265 -8.897702 1.321965 -0.195455 -5.667584 1.941496 -0.571881 -14.843514 0.438267 -0.652030 -3.844392 0.000000 0.000000 0.000000 7.130500 -10.542678 -32.058742 28.123724 -39.229914 10.201869 18.393531 -23.170579 -12.731335 0.000000 0.000000 0.000000 -7.125000 0.000000 0.000000 -8.093659 43.226378 -0.356747 0.000000 0.000000 0.000000 -2.498086 -12.363630 28.481259 -27.246139 -38.412908 -9.651667 -19.566684 -7.915367 6.507364 0.000000 0.000000 0.000000 7.125000 0.000000 0.000000 6.078290 36.822717 1.228241
52.531329 13.933429 -5.707863 5.117864 -85.552615 14.800797 0.000000 0.000000 0.000000 -8.767728 -11.712902 -66.437145 13.854505 19.069271 71.759514 1.756507 -0.943805 -24.797925 0.303941 -3.544833 -9.799472 0.000000 0.000000 0.000000 10.161333 9.831021 -69.409987 -15.942671 -19.600693 78.061005 -2.409281 0.275697 -29.331685 -0.000307 -0.106098 0.291521 0.912744 -0.832169 26.144692 -0.485181 -1.247306 5.061353 -0.629137 -0.769095 -8.910426 1.324642 -0.185559 -5.670144 1.930949 -0.559264 -14.830899 0.433965 -0.645014 -3.839482 0.000000 0.000000 0.000000 7.119631 -10.555982 -32.049391 28.106196 -39.213833 10.190743 18.407276 -23.162591 -12.724036 0.000000 0.000000 0.000000 -7.125000 0.000000 0.000000 -8.079849 43.220266 -0.357382 0.000000 0.000000 0.000000 -2.502210 -12.362805 28.481594 -27.238824 -38.406031 -9.647182 -19.564084 -7.914651 6.520662 0.000000 0.000000 0.000000 7.125000 0.000000 0.000000 6.082086 36.836547 1.226937
52.532322 13.934191 -5.706848 5.199124 -85.554003 14.716959 0.000000 0.000000 0.000000 -8.775124 -11.729663 -66.426281 13.851827 19.068509 71.751488 1.756600 -0.939601 -24.800352 0.302309 -3.535162 -9.772507 0.000000 0.000000 0.000000 10.150906 9.823687 -69.405949 -15.941527 -19.600439 78.057371 -2.410670 0.310371 -29.329392 -0.000400 -0.132552 0.364025 0.913309 -0.836330 26.155455 -0.487938 -1.252752 5.058809 -0.630577 -0.771661 -8.919029 1.336012 -0.174172 -5.691961 1.917560 -0.546011 -14.810641 0.427072 -0.637971 -3.828221 0.000000 0.000000 0.000000 7.117829 -10.569284 -32.064093 28.098500 -39.206800 10.185900 18.412820 -23.153801 -12.745654 0.000000 0.000000 0.000000 -7.125000 0.000000 0.000000 -8.079252 43.243197 -0.352719 0.000000 0.000000 0.000000 -2.503627 -12.365868 28.473242 -27.230815 -38.398445 -9.642140 -19.556671 -7.910350 6.531641 0.000000 0.000000 0.000000 7.125000 0.000000 0.000000 6.089620 36.847671 1.226809
